<?xml version="1.0" encoding="UTF-8" standalone="no"?>
<svg
   xmlns:dc="http://purl.org/dc/elements/1.1/"
   xmlns:cc="http://creativecommons.org/ns#"
   xmlns:rdf="http://www.w3.org/1999/02/22-rdf-syntax-ns#"
   xmlns:svg="http://www.w3.org/2000/svg"
   xmlns="http://www.w3.org/2000/svg"
   xmlns:sodipodi="http://sodipodi.sourceforge.net/DTD/sodipodi-0.dtd"
   xmlns:inkscape="http://www.inkscape.org/namespaces/inkscape"
   version="1.0"
   width="1280.000000pt"
   height="1216.000000pt"
   viewBox="0 0 1280.000000 1216.000000"
   preserveAspectRatio="xMidYMid meet"
   id="svg3787"
   sodipodi:docname="programmer_mirrored.svg"
   inkscape:version="0.92.4 5da689c313, 2019-01-14">
  <metadata
     id="metadata3793">
    <rdf:RDF>
      <cc:Work
         rdf:about="">
        <dc:format>image/svg+xml</dc:format>
        <dc:type
           rdf:resource="http://purl.org/dc/dcmitype/StillImage" />
        <dc:title></dc:title>
      </cc:Work>
    </rdf:RDF>
  </metadata>
  <defs
     id="defs3791" />
  <sodipodi:namedview
     pagecolor="#ffffff"
     bordercolor="#666666"
     borderopacity="1"
     objecttolerance="10"
     gridtolerance="10"
     guidetolerance="10"
     inkscape:pageopacity="0"
     inkscape:pageshadow="2"
     inkscape:window-width="1920"
     inkscape:window-height="1028"
     id="namedview3789"
     showgrid="false"
     inkscape:zoom="0.51747533"
     inkscape:cx="853.33333"
     inkscape:cy="810.66667"
     inkscape:window-x="0"
     inkscape:window-y="0"
     inkscape:window-maximized="1"
     inkscape:current-layer="svg3787" />
  <g
     transform="matrix(-0.1,0,0,-0.1,1279.7743,1216)"
     id="g3785"
     style="fill:#000000;stroke:none">
    <path
       d="m 9447,12144 c -86,-19 -243,-77 -517,-192 -245,-103 -366,-146 -463,-162 -116,-20 -197,5 -229,70 l -16,34 -17,-40 c -50,-118 -56,-236 -16,-293 27,-38 88,-61 160,-61 h 59 l -50,-95 c -92,-176 -142,-362 -157,-592 -5,-76 -10,-300 -11,-498 0,-198 -3,-361 -5,-364 -3,-2 -54,-17 -115,-32 -186,-47 -303,-115 -358,-207 -22,-39 -27,-59 -27,-117 0,-59 5,-79 29,-123 62,-111 244,-249 428,-324 l 78,-32 v -117 c 0,-64 3,-145 6,-180 l 7,-64 91,-90 c 208,-206 487,-377 699,-431 35,-8 69,-19 76,-23 10,-7 154,-441 148,-447 -13,-13 -208,-79 -397,-134 -486,-142 -719,-244 -862,-378 -81,-75 -103,-122 -105,-222 l -2,-85 -33,-7 c -18,-4 -116,-10 -218,-13 -102,-4 -250,-15 -330,-25 -80,-11 -179,-22 -220,-25 -329,-28 -625,-87 -750,-150 -192,-98 -484,-329 -770,-611 l -185,-183 -56,42 c -30,23 -113,106 -184,184 -130,145 -173,176 -213,157 -9,-5 -375,-11 -812,-14 -735,-5 -797,-6 -827,-23 -42,-23 -63,-64 -63,-126 0,-39 -4,-51 -17,-54 -10,-3 -193,-42 -408,-88 -214,-45 -550,-116 -745,-158 l -355,-76 -3,-29 c -2,-16 1,-33 7,-39 7,-7 11,-111 11,-313 v -303 l 43,-5 c 23,-4 123,-13 222,-21 99,-8 286,-24 415,-35 129,-11 368,-31 530,-45 162,-14 452,-38 644,-55 l 349,-29 66,33 c 36,19 93,46 126,60 32,15 73,37 90,50 16,13 69,44 116,70 94,51 99,58 99,151 0,53 4,55 171,62 l 125,6 24,-64 c 84,-234 198,-398 307,-445 70,-30 371,-8 1008,72 259,32 784,108 830,120 15,4 12,-1 -10,-18 -16,-13 -46,-37 -65,-54 -31,-29 -66,-40 -315,-104 -154,-39 -311,-80 -350,-90 -38,-10 -284,-73 -545,-140 -814,-209 -825,-212 -1022,-312 -630,-318 -820,-868 -513,-1478 56,-111 118,-207 259,-400 221,-302 495,-724 689,-1061 l 26,-46 -387,-177 -387,-178 -62,-65 c -37,-38 -76,-93 -95,-131 -30,-61 -33,-74 -33,-162 0,-83 4,-101 27,-145 98,-186 359,-337 698,-403 199,-39 289,-47 565,-46 h 270 l 650,325 650,324 58,85 c 67,97 124,206 157,300 18,49 24,88 24,155 1,81 -2,95 -28,142 -16,29 -37,60 -48,69 -17,17 -15,20 62,94 78,75 80,78 80,124 0,45 -9,62 -141,263 -77,118 -139,216 -137,218 2,2 30,-5 62,-15 172,-57 74,-54 1661,-58 1016,-2 1489,0 1557,8 557,63 1000,483 1093,1036 14,84 16,162 13,524 -4,421 -4,426 -30,521 -47,175 -113,314 -209,445 l -37,51 99,132 c 168,225 323,489 385,655 17,46 18,48 27,25 62,-160 138,-254 253,-310 65,-32 74,-34 179,-34 103,0 114,2 178,32 118,56 215,166 263,298 35,97 358,2528 350,2636 -16,232 -168,411 -380,450 -203,38 -422,-104 -505,-326 -15,-40 -56,-271 -61,-343 -1,-4 -16,38 -35,94 -87,262 -217,411 -426,488 l -45,17 -204,422 c -112,232 -214,443 -226,468 l -23,45 89,63 c 165,116 283,262 367,454 55,124 77,208 103,382 25,177 25,328 0,530 -46,361 -139,591 -294,725 -151,131 -478,320 -770,444 -378,162 -719,227 -939,180 z m 1389,-8017 c 35,-32 64,-65 64,-73 0,-8 6,-14 14,-14 23,0 112,-145 145,-235 46,-126 54,-210 48,-501 -3,-203 -8,-272 -21,-319 -20,-67 -65,-175 -75,-175 -3,0 -13,15 -20,33 -39,86 -188,182 -356,227 -72,20 -117,23 -450,30 -203,5 -439,9 -523,9 l -153,1 88,72 c 318,261 613,528 893,808 l 225,226 29,-15 c 15,-9 57,-42 92,-74 z"
       id="path3781"
       inkscape:connector-curvature="0" />
    <path
       d="m 751,10654 c -12,-9 -102,-52 -199,-96 l -175,-79 -37,36 c -19,19 -39,35 -42,35 -3,0 7,-44 22,-97 15,-54 48,-172 73,-263 104,-377 439,-1596 442,-1610 3,-10 -21,-29 -73,-58 C 516,8387 280,8136 160,7884 -81,7380 -47,6740 262,5965 322,5814 554,5332 585,5295 l 16,-20 -5,20 c -31,117 -60,476 -51,635 18,336 84,565 223,773 54,81 187,209 265,255 58,35 216,107 221,100 2,-1 63,-221 136,-488 73,-267 137,-492 141,-501 5,-11 38,-19 116,-28 59,-7 166,-21 236,-32 l 128,-18 222,54 c 345,84 625,151 832,201 105,25 203,50 218,56 40,15 67,55 67,98 0,20 -65,257 -146,526 -80,269 -231,777 -336,1129 -104,352 -216,728 -248,835 -360,1212 -435,1458 -447,1476 -8,12 -26,27 -41,33 -15,6 -247,56 -517,111 -269,56 -554,114 -633,130 -164,34 -199,36 -231,14 z"
       id="path3783"
       inkscape:connector-curvature="0" />
  </g>
</svg>
